<?xml version="1.0" encoding="UTF-8" standalone="no"?><svg width="211" height="88" viewBox="0 0 211 88" fill="none" xmlns="http://www.w3.org/2000/svg">
<path d="M-387.898 85.2857V81.6008C-385.069 81.4519 -383.132 80.8191 -382.09 79.7025C-381.047 78.5114 -380.489 76.9108 -380.414 74.9009C-380.265 72.8164 -380.191 70.4715 -380.191 67.866V19.6266C-380.191 18.1377 -380.154 16.7233 -380.079 15.3833C-380.005 13.9689 -379.93 12.7034 -379.856 11.5867C-381.196 11.6612 -382.537 11.7356 -383.877 11.81C-385.218 11.8845 -386.558 11.9589 -387.898 12.0334V7.1201C-383.728 7.04566 -379.521 6.97121 -375.276 6.89677C-370.957 6.82233 -366.637 6.85955 -362.318 7.00843C-355.095 7.08288 -349.286 7.93898 -344.892 9.57673C-340.424 11.14 -337.148 13.4106 -335.062 16.3883C-332.977 19.2916 -331.935 22.8277 -331.935 26.9965C-331.86 29.8998 -332.419 32.8775 -333.61 35.9297C-334.727 38.9075 -336.813 41.5874 -339.866 43.9696C-342.845 46.3518 -347.164 48.1384 -352.823 49.3295C-351.334 50.3717 -350.031 51.7117 -348.914 53.3495C-347.797 54.9872 -346.531 56.8856 -345.116 59.0444L-337.52 70.9926C-336.254 73.0026 -335.025 74.8264 -333.834 76.4642C-332.642 78.0275 -331.265 79.293 -329.701 80.2608C-328.137 81.1541 -326.201 81.6008 -323.892 81.6008V85.2857H-337.967C-340.126 83.3502 -341.951 81.4147 -343.44 79.4791C-344.855 77.5436 -346.345 75.3475 -347.908 72.8909L-355.393 60.9427C-356.361 59.3794 -357.478 57.5928 -358.744 55.5828C-359.935 53.4984 -361.313 51.749 -362.877 50.3345C-364.068 50.409 -365.334 50.4462 -366.675 50.4462C-367.941 50.4462 -369.207 50.409 -370.473 50.3345V71.9976C-370.473 74.0075 -370.51 75.757 -370.584 77.2458C-370.584 78.6603 -370.659 79.8513 -370.808 80.8191C-369.914 80.7447 -369.02 80.7075 -368.127 80.7075C-367.233 80.633 -366.34 80.5586 -365.446 80.4841C-364.552 80.4097 -363.659 80.3725 -362.765 80.3725V85.2857H-387.898ZM-363.547 46.2029C-359.451 46.054 -355.877 45.384 -352.823 44.1929C-349.696 43.0018 -347.238 41.1035 -345.451 38.498C-343.664 35.8925 -342.77 32.4681 -342.77 28.2248C-342.77 25.396 -343.18 22.9393 -343.999 20.8549C-344.743 18.6961 -345.935 16.9094 -347.573 15.495C-349.212 14.0806 -351.297 13.0384 -353.829 12.3684C-356.361 11.6239 -359.339 11.2517 -362.765 11.2517C-365.52 11.2517 -367.457 11.81 -368.574 12.9267C-369.616 14.0433 -370.212 15.6067 -370.361 17.6166C-370.435 19.5522 -370.473 21.8599 -370.473 24.5399V45.9796C-369.281 46.054 -368.164 46.1285 -367.122 46.2029C-366.004 46.2774 -364.813 46.2774 -363.547 46.2029Z" fill="#122821"/>
<path d="M-292.716 87.0724C-297.855 87.0724 -302.509 85.8813 -306.679 83.4991C-310.775 81.0424 -314.014 77.618 -316.397 73.2259C-318.78 68.7593 -319.972 63.511 -319.972 57.4811C-319.972 52.2701 -318.818 47.394 -316.509 42.853C-314.126 38.3119 -310.812 34.6642 -306.568 31.9098C-302.323 29.0809 -297.408 27.6665 -291.823 27.6665C-288.695 27.6665 -285.791 28.1876 -283.11 29.2298C-280.354 30.1976 -277.934 31.7237 -275.849 33.8081C-273.764 35.8181 -272.125 38.3863 -270.934 41.513C-269.742 44.5652 -269.147 48.1757 -269.147 52.3445L-308.466 53.0145C-308.466 58.6722 -307.871 63.6599 -306.679 67.9776C-305.413 72.2209 -303.403 75.5336 -300.647 77.9158C-297.892 80.2236 -294.355 81.3774 -290.035 81.3774C-287.727 81.3774 -285.381 80.968 -282.998 80.1491C-280.54 79.3303 -278.269 78.2136 -276.184 76.7992C-274.099 75.3848 -272.423 73.8214 -271.157 72.1092L-268.476 74.3425C-270.487 77.4692 -272.907 79.963 -275.737 81.8241C-278.567 83.6852 -281.471 85.0252 -284.45 85.8441C-287.429 86.6629 -290.184 87.0724 -292.716 87.0724ZM-308.131 48.3246H-279.647C-279.647 45.6446 -280.056 43.0763 -280.876 40.6197C-281.62 38.0886 -282.886 36.0414 -284.674 34.4781C-286.461 32.8403 -288.807 32.0214 -291.711 32.0214C-296.03 32.0214 -299.642 33.3242 -302.546 35.9297C-305.376 38.4608 -307.238 42.5924 -308.131 48.3246Z" fill="#122821"/>
<path d="M-259.206 85.2857V81.9358C-256.897 81.9358 -255.296 81.3774 -254.403 80.2608C-253.509 79.0697 -252.988 77.4692 -252.839 75.4592C-252.69 73.3748 -252.615 70.9926 -252.615 68.3126V42.853C-252.615 41.6619 -252.615 40.4708 -252.615 39.2797C-252.541 38.0886 -252.392 36.8603 -252.169 35.5947C-253.509 35.6692 -254.849 35.7436 -256.19 35.8181C-257.456 35.8925 -258.759 35.9669 -260.1 36.0414V31.3514C-256.823 31.3514 -254.365 31.2026 -252.727 30.9048C-251.014 30.607 -249.748 30.2348 -248.929 29.7881C-248.11 29.3415 -247.44 28.8576 -246.918 28.3365H-243.679C-243.53 29.0809 -243.456 29.937 -243.456 30.9048C-243.381 31.8725 -243.307 32.9892 -243.232 34.2547C-240.998 32.3192 -238.429 30.7559 -235.525 29.5648C-232.62 28.2993 -229.716 27.6665 -226.812 27.6665C-223.088 27.6665 -219.961 28.3365 -217.429 29.6765C-214.897 31.0164 -212.923 32.8403 -211.508 35.1481C-208.976 33.0636 -206.072 31.3142 -202.795 29.8998C-199.444 28.4109 -196.168 27.6665 -192.965 27.6665C-186.487 27.6665 -181.721 29.6392 -178.667 33.5847C-175.614 37.4558 -174.162 43.8207 -174.311 52.6795L-174.423 73.4492C-174.423 74.9381 -174.46 76.2781 -174.534 77.4692C-174.534 78.5858 -174.646 79.7769 -174.869 81.0424C-173.678 80.968 -172.524 80.9308 -171.407 80.9308C-170.215 80.8563 -169.024 80.7819 -167.832 80.7075V85.2857H-190.62V81.9358C-188.311 81.9358 -186.71 81.3774 -185.816 80.2608C-184.923 79.0697 -184.402 77.4692 -184.253 75.4592C-184.104 73.3748 -184.029 70.9926 -184.029 68.3126V52.6795C-184.029 46.2774 -185.072 41.4758 -187.157 38.2747C-189.168 35.0736 -192.37 33.5103 -196.763 33.5847C-199.072 33.5847 -201.381 34.1059 -203.689 35.1481C-205.998 36.1903 -208.008 37.493 -209.721 39.0563C-209.349 40.2474 -209.088 41.5502 -208.939 42.9646C-208.716 44.3046 -208.604 45.719 -208.604 47.2079C-208.678 51.5256 -208.716 55.8806 -208.716 60.2727C-208.716 64.6649 -208.753 69.0571 -208.827 73.4492C-208.827 74.9381 -208.865 76.2781 -208.939 77.4692C-208.939 78.5858 -209.051 79.7769 -209.274 81.0424C-208.083 80.968 -206.928 80.9308 -205.811 80.9308C-204.62 80.8563 -203.428 80.7819 -202.237 80.7075V85.2857H-225.025V81.9358C-222.716 81.9358 -221.152 81.3774 -220.333 80.2608C-219.439 79.0697 -218.918 77.4692 -218.769 75.4592C-218.546 73.3748 -218.434 70.9926 -218.434 68.3126L-218.322 52.6795C-218.248 46.2774 -219.179 41.4385 -221.115 38.163C-223.051 34.8875 -226.216 33.287 -230.61 33.3614C-232.918 33.3614 -235.19 33.8825 -237.424 34.9247C-239.658 35.8925 -241.557 37.158 -243.121 38.7213C-243.121 39.6147 -243.121 40.5824 -243.121 41.6246C-243.046 42.5924 -243.009 43.6346 -243.009 44.7513V73.4492C-243.009 74.9381 -243.046 76.2781 -243.121 77.4692C-243.121 78.5858 -243.232 79.7769 -243.456 81.0424C-242.264 80.968 -241.11 80.9308 -239.993 80.9308C-238.801 80.8563 -237.61 80.7819 -236.418 80.7075V85.2857H-259.206Z" fill="#122821"/>
<path d="M-125.434 85.2857C-125.658 84.0202 -125.807 82.9035 -125.881 81.9358C-125.956 80.968 -126.067 79.963 -126.216 78.9208C-128.748 81.4519 -131.504 83.4619 -134.482 84.9507C-137.387 86.3652 -140.477 87.0724 -143.754 87.0724C-149.413 87.0724 -153.621 85.8068 -156.376 83.2758C-159.132 80.6702 -160.509 77.5064 -160.509 73.7842C-160.509 70.3598 -159.467 67.4193 -157.382 64.9627C-155.222 62.4316 -152.467 60.3844 -149.116 58.8211C-145.69 57.1833 -142.004 55.9922 -138.057 55.2478C-134.036 54.4289 -130.163 54.0567 -126.44 54.1311V47.2079C-126.44 44.6024 -126.663 42.1457 -127.11 39.838C-127.557 37.5303 -128.525 35.6319 -130.014 34.1431C-131.504 32.6542 -133.887 31.8726 -137.163 31.7981C-139.323 31.7237 -141.557 32.1331 -143.865 33.0264C-146.1 33.9197 -147.738 35.4458 -148.78 37.6047C-148.185 38.2002 -147.812 38.9075 -147.663 39.7263C-147.44 40.4708 -147.328 41.178 -147.328 41.848C-147.328 42.7413 -147.701 43.7835 -148.445 44.9746C-149.19 46.0912 -150.493 46.6124 -152.355 46.5379C-153.919 46.5379 -155.11 46.0168 -155.93 44.9746C-156.749 43.8579 -157.158 42.5552 -157.158 41.0663C-157.158 38.5352 -156.227 36.2647 -154.366 34.2547C-152.429 32.2448 -149.786 30.6442 -146.435 29.4531C-143.084 28.262 -139.286 27.6665 -135.041 27.6665C-128.785 27.6665 -124.168 29.3415 -121.19 32.6914C-118.211 35.9669 -116.759 41.178 -116.833 48.3246C-116.833 51.079 -116.833 53.8706 -116.833 56.6994C-116.833 59.4538 -116.87 62.2455 -116.945 65.0743C-116.945 67.8287 -116.945 70.6204 -116.945 73.4492C-116.945 74.6403 -116.982 75.8314 -117.057 77.0225C-117.131 78.2136 -117.243 79.5536 -117.392 81.0424C-116.051 80.968 -114.748 80.8936 -113.482 80.8191C-112.142 80.7447 -110.801 80.6702 -109.461 80.5958V85.2857H-125.434ZM-126.44 57.9278C-128.972 58.0022 -131.653 58.3372 -134.482 58.9327C-137.238 59.4539 -139.807 60.2727 -142.19 61.3894C-144.498 62.506 -146.397 63.9949 -147.887 65.856C-149.302 67.6426 -149.972 69.8387 -149.898 72.4442C-149.749 75.1986 -148.855 77.2831 -147.217 78.6975C-145.504 80.0375 -143.493 80.7075 -141.185 80.7075C-138.131 80.7075 -135.488 80.1491 -133.254 79.0325C-130.945 77.8414 -128.674 76.2036 -126.44 74.1192C-126.514 73.3003 -126.551 72.407 -126.551 71.4392C-126.551 70.4715 -126.551 69.4665 -126.551 68.4243C-126.551 68.0521 -126.551 66.861 -126.551 64.851C-126.477 62.841 -126.44 60.5333 -126.44 57.9278Z" fill="#122821"/>
<path d="M-101.795 81.9358C-99.4865 81.9358 -97.8854 81.3774 -96.9917 80.2608C-96.0981 79.0697 -95.5768 77.4692 -95.4279 75.4592C-95.2789 73.3748 -95.2045 70.9926 -95.2045 68.3126V42.853C-95.2045 41.6619 -95.2045 40.4708 -95.2045 39.2797C-95.13 38.0886 -94.9811 36.8603 -94.7577 35.5947C-96.0981 35.6692 -97.4386 35.7436 -98.779 35.8181C-100.045 35.8181 -101.348 35.8553 -102.689 35.9297V31.3514H-99.2258C-96.0236 31.3514 -93.8268 31.0537 -92.6353 30.4581C-91.3693 29.7881 -90.3268 29.0809 -89.5076 28.3365H-86.2682C-86.1192 29.5276 -86.0075 31.0164 -85.9331 32.8031C-85.8586 34.5153 -85.7841 36.7114 -85.7096 39.3913C-84.5926 37.5303 -83.066 35.7064 -81.1298 33.9197C-79.1936 32.1331 -77.034 30.6442 -74.6509 29.4531C-72.1935 28.262 -69.6243 27.6665 -66.9434 27.6665C-64.8582 27.6665 -63.0338 28.2248 -61.4699 29.3415C-59.906 30.4581 -59.1241 32.2448 -59.1241 34.7014C-59.1241 35.297 -59.3103 36.0414 -59.6826 36.9347C-60.055 37.7536 -60.6507 38.498 -61.4699 39.168C-62.2891 39.7636 -63.3688 40.0613 -64.7093 40.0613C-66.3476 39.9869 -67.6508 39.3541 -68.619 38.163C-69.5871 36.8975 -69.9594 35.4458 -69.736 33.8081C-71.5977 33.7336 -73.5339 34.2175 -75.5446 35.2597C-77.4808 36.3019 -79.3053 37.7536 -81.0181 39.6147C-82.7309 41.4013 -84.2575 43.523 -85.5979 45.9796L-85.4862 73.4492C-85.4862 74.9381 -85.5235 76.2781 -85.5979 77.4692C-85.5979 78.5858 -85.7097 79.7769 -85.9331 81.0424C-84.7415 80.968 -83.5873 80.9308 -82.4702 80.9308C-81.2787 80.8563 -80.0872 80.7819 -78.8957 80.7075V85.2857H-101.795V81.9358Z" fill="#122821"/>
<path d="M-54.9117 85.2857V81.9358C-52.6031 81.9358 -51.0392 81.3774 -50.2201 80.2608C-49.3264 79.0697 -48.8052 77.4692 -48.6562 75.4592C-48.5073 73.3748 -48.4328 70.9926 -48.4328 68.3126L-48.3211 15.495C-48.3211 14.3039 -48.3211 13.1872 -48.3211 12.145C-48.2467 11.0284 -48.1349 9.72562 -47.986 8.23675C-49.3264 8.3112 -50.6669 8.38564 -52.0074 8.46008C-53.2733 8.53452 -54.5765 8.60897 -55.917 8.68341V3.99347C-52.6403 3.99347 -50.1084 3.84459 -48.3211 3.54681C-46.5339 3.24904 -45.1934 2.87682 -44.2998 2.43016C-43.3317 1.9835 -42.587 1.49962 -42.0657 0.978516H-38.8263V53.7962H-34.3582L-20.7303 39.503C-19.4643 38.2375 -18.31 37.1208 -17.2674 36.153C-16.2249 35.1108 -15.1823 34.2547 -14.1397 33.5847L-21.7356 33.9197V29.4531H-1.40549V32.8031C-3.93744 33.0264 -6.32043 33.8453 -8.5545 35.2597C-10.7141 36.5997 -12.7248 38.1258 -14.5865 39.838C-16.3738 41.5502 -17.9377 43.1135 -19.2781 44.5279L-27.991 53.6845C-26.5016 54.3545 -25.2356 55.2106 -24.1931 56.2528C-23.1505 57.295 -22.1079 58.4489 -21.0654 59.7144L-13.1344 69.8759C-12.762 70.3226 -12.1291 71.1787 -11.2354 72.4442C-10.2673 73.7098 -9.15027 75.087 -7.88431 76.5758C-6.54385 78.0647 -5.16617 79.3303 -3.75125 80.3725C-2.26187 81.4147 -0.884186 81.9358 0.381805 81.9358V85.2857H-9.78326C-11.8684 85.2857 -13.8418 84.2063 -15.7036 82.0474C-17.5653 79.8886 -19.5388 77.4692 -21.6239 74.7892C-23.5601 72.1092 -25.3101 69.6898 -26.874 67.531C-28.3634 65.2977 -29.741 63.3621 -31.007 61.7244C-32.1985 60.0866 -33.2783 58.8211 -34.2464 57.9278L-38.8263 58.1511V73.4492C-38.8263 74.9381 -38.8635 76.2781 -38.938 77.4692C-38.938 78.5858 -39.0497 79.7769 -39.2731 81.0424C-38.0816 80.968 -36.8901 80.9308 -35.6986 80.9308C-34.507 80.8563 -33.3156 80.7819 -32.1241 80.7075V85.2857H-54.9117Z" fill="#122821"/>
<path d="M40.0489 85.2857C39.8255 84.0202 39.6765 82.9035 39.6021 81.9358C39.5276 80.968 39.4159 79.963 39.267 78.9208C36.735 81.4519 33.9796 83.4619 31.0009 84.9507C28.0966 86.3652 25.0061 87.0724 21.7295 87.0724C16.0698 87.0724 11.8623 85.8068 9.10693 83.2758C6.35156 80.6702 4.97388 77.5064 4.97388 73.7842C4.97388 70.3598 6.01645 67.4193 8.10156 64.9627C10.2612 62.4316 13.0165 60.3844 16.3677 58.8211C19.7933 57.1833 23.4795 55.9922 27.4264 55.2478C31.4477 54.4289 35.3201 54.0567 39.0436 54.1311V47.2079C39.0436 44.6024 38.8202 42.1457 38.3733 39.838C37.9265 37.5303 36.9584 35.6319 35.4691 34.1431C33.9797 32.6542 31.5966 31.8726 28.32 31.7981C26.1604 31.7237 23.9263 32.1331 21.6177 33.0264C19.3837 33.9197 17.7454 35.4458 16.7028 37.6047C17.2985 38.2002 17.6709 38.9075 17.8198 39.7263C18.0432 40.4708 18.1549 41.178 18.1549 41.848C18.1549 42.7413 17.7826 43.7835 17.0379 44.9746C16.2932 46.0912 14.99 46.6124 13.1283 46.5379C11.5644 46.5379 10.3729 46.0168 9.55374 44.9746C8.73459 43.8579 8.32501 42.5552 8.32501 41.0663C8.32501 38.5352 9.25586 36.2647 11.1176 34.2547C13.0538 32.2448 15.6975 30.6442 19.0486 29.4531C22.3997 28.262 26.1976 27.6665 30.4424 27.6665C36.6978 27.6665 41.3149 29.3415 44.2936 32.6914C47.2724 35.9669 48.7245 41.178 48.6501 48.3246C48.6501 51.079 48.6501 53.8706 48.6501 56.6994C48.6501 59.4538 48.6129 62.2455 48.5384 65.0743C48.5384 67.8287 48.5384 70.6204 48.5384 73.4492C48.5384 74.6403 48.5012 75.8314 48.4267 77.0225C48.3522 78.2136 48.2405 79.5536 48.0916 81.0424C49.432 80.968 50.7352 80.8936 52.0012 80.8191C53.3417 80.7447 54.6821 80.6702 56.0226 80.5958V85.2857H40.0489ZM39.0436 57.9278C36.5116 58.0022 33.8307 58.3372 31.0009 58.9327C28.2455 59.4539 25.6763 60.2727 23.2933 61.3894C20.9848 62.506 19.0858 63.9949 17.5964 65.856C16.1815 67.6426 15.5113 69.8387 15.5858 72.4442C15.7347 75.1986 16.6283 77.2831 18.2666 78.6975C19.9794 80.0375 21.9901 80.7075 24.2987 80.7075C27.3519 80.7075 29.9955 80.1491 32.2296 79.0325C34.5382 77.8414 36.8095 76.2036 39.0436 74.1192C38.9691 73.3003 38.9319 72.407 38.9319 71.4392C38.9319 70.4715 38.9319 69.4665 38.9319 68.4243C38.9319 68.0521 38.9319 66.861 38.9319 64.851C39.0063 62.841 39.0436 60.5333 39.0436 57.9278Z" fill="#122821"/>
<path d="M67.2628 15.495C67.2628 14.3039 67.2628 13.1872 67.2628 12.145C67.3372 11.0284 67.449 9.72562 67.5979 8.23675C66.2574 8.3112 64.917 8.38564 63.5765 8.46008C62.3105 8.53452 61.0074 8.60897 59.6669 8.68341V3.99347C62.9436 3.99347 65.4755 3.84459 67.2628 3.54681C69.1245 3.24904 70.5022 2.87682 71.3958 2.43016C72.3639 1.9835 73.1086 1.49962 73.6299 0.978516H76.8693V34.2547C78.9545 32.1703 81.4119 30.5698 84.2418 29.4531C87.1461 28.262 90.311 27.6665 93.7366 27.6665C98.5027 27.6665 102.785 28.8204 106.583 31.1281C110.455 33.4359 113.508 36.7114 115.742 40.9547C117.976 45.1979 119.093 50.2229 119.093 56.0294C119.093 62.3571 117.716 67.866 114.96 72.5559C112.205 77.1714 108.63 80.7447 104.237 83.2758C99.8431 85.8068 95.1143 87.0724 90.0504 87.0724C87.5184 87.0724 84.7258 86.5885 81.6726 85.6207C78.6938 84.7274 76.0129 82.9408 73.6299 80.2608L70.949 85.2857H67.0394L67.2628 15.495ZM76.8693 67.7543C76.8693 71.6998 77.5023 74.752 78.7683 76.9108C80.0342 78.9953 81.6726 80.4469 83.6832 81.2658C85.6939 82.0847 87.8163 82.4941 90.0504 82.4941C93.6249 82.4941 96.7154 81.4891 99.3218 79.4791C101.928 77.4692 103.939 74.7148 105.354 71.2159C106.843 67.6426 107.588 63.511 107.588 58.8211C107.588 53.7589 106.955 49.3295 105.689 45.5329C104.423 41.6619 102.524 38.6469 99.992 36.488C97.4601 34.2547 94.2579 33.1381 90.3855 33.1381C87.928 33.1381 85.4705 33.7336 83.013 34.9247C80.63 36.0414 78.5821 37.5675 76.8693 39.503V67.7543Z" fill="#122821"/>
<path d="M127.586 81.9358C129.895 81.9358 131.496 81.3774 132.39 80.2608C133.283 79.0697 133.805 77.4692 133.953 75.4592C134.102 73.3748 134.177 70.9926 134.177 68.3126V15.495C134.177 14.3039 134.177 13.1872 134.177 12.145C134.251 11.0284 134.363 9.72562 134.512 8.23675C133.172 8.3112 131.831 8.38564 130.491 8.46008C129.225 8.53452 127.922 8.60897 126.581 8.68341V3.99347C129.858 3.99347 132.39 3.84459 134.177 3.54681C136.039 3.24904 137.416 2.87682 138.31 2.43016C139.278 1.9835 140.023 1.49962 140.544 0.978516H143.783L143.895 73.4492C143.895 74.9381 143.858 76.2781 143.783 77.4692C143.709 78.5858 143.56 79.7769 143.337 81.0424C144.528 80.968 145.682 80.9308 146.799 80.9308C147.991 80.8563 149.182 80.7819 150.374 80.7075V85.2857H127.586V81.9358Z" fill="#122821"/>
<path d="M186.171 87.0724C181.032 87.0724 176.378 85.8813 172.208 83.4991C168.112 81.0424 164.872 77.618 162.49 73.2259C160.107 68.7593 158.915 63.511 158.915 57.4811C158.915 52.2701 160.069 47.394 162.378 42.853C164.761 38.3119 168.075 34.6642 172.319 31.9098C176.564 29.0809 181.479 27.6665 187.064 27.6665C190.192 27.6665 193.096 28.1876 195.777 29.2298C198.533 30.1976 200.953 31.7237 203.038 33.8081C205.123 35.8181 206.761 38.3863 207.953 41.513C209.144 44.5652 209.74 48.1757 209.74 52.3445L170.42 53.0145C170.42 58.6722 171.016 63.6599 172.208 67.9776C173.474 72.2209 175.484 75.5336 178.24 77.9158C180.995 80.2236 184.532 81.3774 188.852 81.3774C191.16 81.3774 193.506 80.968 195.889 80.1491C198.346 79.3303 200.618 78.2136 202.703 76.7992C204.788 75.3848 206.464 73.8214 207.73 72.1092L210.41 74.3425C208.4 77.4692 205.98 79.963 203.15 81.8241C200.32 83.6852 197.416 85.0252 194.437 85.8441C191.458 86.6629 188.703 87.0724 186.171 87.0724ZM170.756 48.3246H199.24C199.24 45.6446 198.831 43.0763 198.011 40.6197C197.267 38.0886 196.001 36.0414 194.213 34.4781C192.426 32.8403 190.08 32.0214 187.176 32.0214C182.857 32.0214 179.245 33.3242 176.341 35.9297C173.511 38.4608 171.649 42.5924 170.756 48.3246Z" fill="#122821"/>
</svg>
